<svg width="100" height="100" viewBox="0 0 100 100" fill="none" xmlns="http://www.w3.org/2000/svg">
<g clip-path="url(#clip0_18_5)">
<path d="M11.9477 82H25.8257V48.5714L6 33.7143V76.0804C6 79.3304 8.68231 82 11.9477 82Z" fill="#4285F4"/>
<path d="M73.2909 82H87.1689C90.4343 82 93.1166 79.3304 93.1166 76.0804V33.7143L73.2909 48.4554" fill="#34A853"/>
<path d="M73.2909 22.9196V48.5714L93.1166 33.8304V25.8214C93.1166 18.5089 84.7198 14.3304 78.8887 18.7411" fill="#FBBC04"/>
<path d="M25.8257 48.5714V22.9196L49.6166 40.6786L73.2909 22.9196V48.5714L49.5 66.2143" fill="#EA4335"/>
<path d="M6 25.8214V33.7143L25.8257 48.4554V22.9196L20.2279 18.7411C14.3968 14.4464 6 18.625 6 25.8214Z" fill="#C5221F"/>
</g>
<defs>
<clipPath id="clip0_18_5">
<rect width="87" height="65" fill="white" transform="translate(6 17)"/>
</clipPath>
</defs>
</svg>
