<svg width="40" height="40" viewBox="0 0 40 40" fill="none" xmlns="http://www.w3.org/2000/svg">
<rect width="40" height="40" rx="4" fill="#6C4AFE"/>
<path fill-rule="evenodd" clip-rule="evenodd" d="M16.2472 22.3675C16.2385 22.189 16.3916 21.9424 16.5058 21.8393L24.2485 15.8836C24.5261 15.6694 24.5776 15.2713 24.3643 14.9937C24.1501 14.7161 23.752 14.6645 23.4744 14.8779C23.4744 14.8779 15.1195 21.3046 15.0513 21.3578C14.8237 21.5331 14.5009 21.5117 14.2978 21.3086L11.5575 18.5684C11.0888 18.0996 10.8976 17.4199 11.0531 16.7751C11.2093 16.1302 11.6892 15.6131 12.3205 15.4101L25.7556 11.0913C26.4353 10.8732 27.1792 11.0525 27.6837 11.5577C28.1889 12.0621 28.3682 12.8061 28.1501 13.4858L23.8313 26.9208C23.6283 27.5522 23.1111 28.0328 22.4663 28.1883C21.8215 28.3437 21.1418 28.1526 20.673 27.6838L17.5147 24.5255V25.532C17.5147 25.8826 17.2307 26.1665 16.8802 26.1665C16.5296 26.1665 16.2456 25.8826 16.2456 25.532V22.3673L16.2472 22.3675Z" fill="white"/>
</svg>
