<svg width="100" height="100" viewBox="0 0 100 100" fill="none" xmlns="http://www.w3.org/2000/svg">
<g clip-path="url(#clip0_18_23)">
<path d="M89.9999 51.375C90.0043 50.7445 89.6811 50.1578 89.1478 49.8281H89.1385L89.105 49.8093L61.3841 33.2719C61.2644 33.1904 61.1402 33.1159 61.012 33.0488C59.9417 32.4922 58.6702 32.4922 57.5999 33.0488C57.4717 33.1159 57.3475 33.1904 57.2278 33.2719L29.5069 49.8093L29.4735 49.8281C28.6262 50.3591 28.3665 51.4817 28.8934 52.3356C29.0486 52.5872 29.2624 52.7968 29.5162 52.9462L57.2372 69.4837C57.3573 69.5645 57.4815 69.639 57.6093 69.7069C58.6796 70.2634 59.951 70.2634 61.0214 69.7069C61.1492 69.639 61.2733 69.5645 61.3935 69.4837L89.1144 52.9462C89.6682 52.6208 90.0062 52.021 89.9999 51.375Z" fill="#0A2767"/>
<path d="M32.7386 40.3331H50.9302V57.1387H32.7386V40.3331ZM86.279 23.25V15.5625C86.3227 13.6404 84.8131 12.0461 82.906 12H35.6986C33.7914 12.0461 32.2819 13.6404 32.3256 15.5625V23.25L60.2325 30.75L86.279 23.25Z" fill="#0364B8"/>
<path d="M32.3256 23.25H50.9302V40.125H32.3256V23.25Z" fill="#0078D4"/>
<path d="M69.5348 23.25H50.9302V40.125L69.5348 57H86.279V40.125L69.5348 23.25Z" fill="#28A8EA"/>
<path d="M50.9302 40.125H69.5348V57H50.9302V40.125Z" fill="#0078D4"/>
<path d="M50.9302 57H69.5348V73.8749H50.9302V57Z" fill="#0364B8"/>
<path d="M32.7386 57.1387H50.9302V72.4162H32.7386V57.1387Z" fill="#14447D"/>
<path d="M69.5349 57H86.279V73.8749H69.5349V57Z" fill="#0078D4"/>
<path d="M89.1478 52.8431L89.1125 52.8619L61.3916 68.5743C61.2706 68.6493 61.1479 68.7206 61.0194 68.7843C60.5486 69.0103 60.0373 69.1378 59.5162 69.1593L58.0018 68.2668C57.8738 68.2021 57.7496 68.1301 57.6297 68.0512L29.5367 51.8925H29.5237L28.6046 51.375V83.1824C28.6189 85.3046 30.3371 87.0134 32.4427 87H86.2213C86.2529 87 86.2808 86.9849 86.3143 86.9849C86.7591 86.9563 87.1975 86.8641 87.6166 86.7112C87.7977 86.6339 87.9725 86.5423 88.1394 86.4375C88.2641 86.3662 88.478 86.2106 88.478 86.2106C89.4311 85.4999 89.9952 84.3774 89.9999 83.1825V51.375C89.9993 51.9833 89.6737 52.5443 89.1478 52.8431Z" fill="url(#paint0_linear_18_23)"/>
<path opacity="0.5" d="M88.5116 51.2493V53.1994L59.5256 73.3124L29.5163 51.9056C29.5163 51.8952 29.5079 51.8868 29.4976 51.8868L26.7442 50.2181V48.8118L27.8791 48.7931L30.279 50.1806L30.3348 50.1993L30.5395 50.3306C30.5395 50.3306 58.7441 66.5493 58.8185 66.5868L59.8976 67.2243C59.9906 67.1868 60.0836 67.1493 60.1952 67.1118C60.2511 67.0743 88.1952 51.2305 88.1952 51.2305L88.5116 51.2493Z" fill="#0A2767"/>
<path d="M89.1478 52.8431L89.1125 52.8637L61.3916 68.5762C61.2706 68.6512 61.1479 68.7224 61.0194 68.7862C59.9429 69.3162 58.6839 69.3162 57.6074 68.7862C57.4799 68.7225 57.3557 68.6524 57.2352 68.5762L29.5144 52.8637L29.4809 52.8431C28.9457 52.5506 28.6102 51.9885 28.6047 51.375V83.1824C28.618 85.3042 30.3355 87.0133 32.4408 87C32.4408 87 32.4409 87 32.4409 87H86.1637C88.269 87.0135 89.9865 85.3044 89.9999 83.1826C89.9999 83.1826 89.9999 83.1825 89.9999 83.1824V51.375C89.9992 51.9833 89.6737 52.5443 89.1478 52.8431Z" fill="#1490DF"/>
<path opacity="0.1" d="M61.7953 68.3437L61.3804 68.5781C61.2602 68.6552 61.136 68.726 61.0083 68.7899C60.5512 69.016 60.0542 69.1486 59.546 69.1799L70.093 81.7499L88.4911 86.2181C88.9953 85.8343 89.3963 85.3296 89.6577 84.7499L61.7953 68.3437Z" fill="black"/>
<path opacity="0.05" d="M63.6744 67.2787L61.3804 68.5781C61.2602 68.6552 61.136 68.726 61.0083 68.7899C60.5512 69.016 60.0542 69.1486 59.546 69.1799L64.4874 82.9105L88.4967 86.2124C89.4425 85.4967 89.9994 84.3744 89.9999 83.1824V82.7718L63.6744 67.2787Z" fill="black"/>
<path d="M32.493 86.9999H86.1581C86.9839 87.0041 87.7892 86.7413 88.4557 86.2499L58 68.2706C57.872 68.2059 57.7477 68.1339 57.6278 68.055L29.5349 51.8962H29.5218L28.6047 51.375V83.0737C28.6026 85.24 30.3434 86.9978 32.493 86.9999V86.9999Z" fill="#28A8EA"/>
<path opacity="0.1" d="M54.6511 30.4369V70.4306C54.6478 71.8328 53.8018 73.0932 52.5116 73.6181C52.1119 73.7912 51.6815 73.8805 51.2464 73.8806H28.6046V28.875H32.3256V27H51.2465C53.126 27.0072 54.6471 28.5426 54.6511 30.4369Z" fill="black"/>
<path opacity="0.2" d="M52.7907 32.3118V72.3055C52.7953 72.7585 52.7001 73.2068 52.5116 73.618C51.9949 74.9015 50.7604 75.7435 49.386 75.7499H28.6046V28.875H49.386C49.9258 28.8695 50.4578 29.0052 50.9302 29.2688C52.0707 29.8478 52.7902 31.0249 52.7907 32.3118Z" fill="black"/>
<path opacity="0.2" d="M52.7907 32.3118V68.5556C52.7816 70.4489 51.2647 71.9835 49.386 71.9999H28.6046V28.875H49.386C49.9258 28.8695 50.4578 29.0052 50.9302 29.2688C52.0707 29.8478 52.7902 31.0249 52.7907 32.3118Z" fill="black"/>
<path opacity="0.2" d="M50.9302 32.3118V68.5556C50.9282 70.4519 49.4071 71.9907 47.5255 71.9999H28.6046V28.875H47.5255C49.4069 28.876 50.9312 30.4139 50.9301 32.31C50.9302 32.3106 50.9302 32.3112 50.9302 32.3118Z" fill="black"/>
<path d="M13.4102 28.875H47.52C49.4034 28.875 50.9302 30.4137 50.9302 32.3118V66.6881C50.9302 68.5862 49.4034 70.1249 47.52 70.1249H13.4102C11.5268 70.1249 10 68.5862 10 66.6881V32.3118C10 30.4137 11.5268 28.875 13.4102 28.875Z" fill="url(#paint1_linear_18_23)"/>
<path d="M20.6586 43.29C21.4991 41.4852 22.8558 39.9749 24.5544 38.9531C26.4356 37.8677 28.5774 37.3266 30.7442 37.3894C32.7524 37.3455 34.734 37.8585 36.4726 38.8725C38.1072 39.8549 39.4237 41.2944 40.2623 43.0162C41.1756 44.9135 41.6308 47.0016 41.5907 49.1099C41.635 51.3134 41.1667 53.4967 40.2233 55.4849C39.3647 57.2683 38.0064 58.7591 36.3163 59.773C34.5107 60.8181 32.4555 61.3446 30.374 61.2956C28.3229 61.3454 26.2976 60.8266 24.5191 59.7955C22.8703 58.8118 21.5373 57.3707 20.6791 55.6443C19.7604 53.7744 19.2998 51.7099 19.3358 49.6237C19.2976 47.439 19.7498 45.2738 20.6586 43.29ZM24.8112 53.4712C25.2593 54.6121 26.0192 55.6017 27.0028 56.325C28.0046 57.0306 29.2042 57.3947 30.426 57.3637C31.7272 57.4156 33.0098 57.0391 34.08 56.2912C35.0511 55.5702 35.791 54.578 36.2083 53.4374C36.6748 52.1637 36.905 50.8144 36.8874 49.4568C36.9018 48.0863 36.6854 46.7232 36.2474 45.4256C35.8605 44.254 35.1444 43.221 34.186 42.4518C33.1427 41.6685 31.8635 41.2712 30.5637 41.3268C29.3154 41.2943 28.0889 41.6612 27.0604 42.375C26.0603 43.1013 25.2859 44.0996 24.8279 45.2531C23.8119 47.8971 23.8066 50.8272 24.813 53.4749L24.8112 53.4712Z" fill="white"/>
<path d="M69.5349 23.25H86.279V40.125H69.5349V23.25Z" fill="#50D9FF"/>
</g>
<defs>
<linearGradient id="paint0_linear_18_23" x1="59.3023" y1="51.375" x2="59.3023" y2="87" gradientUnits="userSpaceOnUse">
<stop stop-color="#35B8F1"/>
<stop offset="1" stop-color="#28A8EA"/>
</linearGradient>
<linearGradient id="paint1_linear_18_23" x1="17.1104" y1="26.1895" x2="44.1328" y2="72.6283" gradientUnits="userSpaceOnUse">
<stop stop-color="#1784D9"/>
<stop offset="0.5" stop-color="#107AD5"/>
<stop offset="1" stop-color="#0A63C9"/>
</linearGradient>
<clipPath id="clip0_18_23">
<rect width="80" height="75" fill="white" transform="translate(10 12)"/>
</clipPath>
</defs>
</svg>
